<?xml version="1.0" encoding="UTF-8" standalone="no"?>
<svg
		version="2.0"
		width="32"
		height="32"
		viewBox="0 0 300.000000 300.000000"
		preserveAspectRatio="xMidYMid meet"
		id="svg1433"
		sodipodi:docname="icon.svg"
		inkscape:version="1.2.2 (b0a8486541, 2022-12-01)"
		xmlns:inkscape="http://www.inkscape.org/namespaces/inkscape"
		xmlns:sodipodi="http://sodipodi.sourceforge.net/DTD/sodipodi-0.dtd"
		xmlns="http://www.w3.org/2000/svg"
		xmlns:svg="http://www.w3.org/2000/svg">
	<defs
			id="defs1437"/>
	<sodipodi:namedview
			id="namedview1435"
			pagecolor="#ffffff"
			bordercolor="#000000"
			borderopacity="0.25"
			inkscape:showpageshadow="2"
			inkscape:pageopacity="0.0"
			inkscape:pagecheckerboard="0"
			inkscape:deskcolor="#d1d1d1"
			showgrid="false"
			inkscape:zoom="20.064155"
			inkscape:cx="9.0709028"
			inkscape:cy="14.503477"
			inkscape:window-width="1920"
			inkscape:window-height="1060"
			inkscape:window-x="0"
			inkscape:window-y="20"
			inkscape:window-maximized="1"
			inkscape:current-layer="svg1433"/>
	<path
			fill="#212529"
			d="M 0,0 H 300 V 300 H 0 Z"
			id="path1417"
			inkscape:label="path1417"
			style="display:inline"/>
	<g
			transform="matrix(0.22676838,0,0.00587433,-0.27262558,-195.84979,575.20829)"
			stroke="none"
			id="g1431"
			inkscape:transform-center-x="4.7219342"
			inkscape:transform-center-y="2.3701533">
		<path
				fill="#ffffff"
				d="m 1602,2087 c -32,-34 -28,-75 10,-114 31,-32 31,-33 13,-53 -24,-27 -64,-25 -121,5 -54,29 -129,33 -173,11 -31,-16 -61,-56 -61,-81 0,-11 -12,-15 -52,-15 -36,0 -64,-7 -86,-20 -55,-34 -79,-121 -46,-168 15,-22 14,-22 -21,-22 -143,0 -207,-164 -97,-248 l 35,-27 516,-3 c 284,-1 526,0 539,3 17,4 22,12 20,28 l -3,22 -533,5 -534,5 -19,24 c -26,32 -24,77 6,106 l 24,25 h 524 c 546,0 558,1 536,42 -8,15 -22,18 -99,18 h -90 l -1,73 c 0,60 -2,68 -11,45 -9,-27 -12,-28 -80,-28 -51,0 -69,-3 -65,-12 2,-9 25,-13 67,-13 54,0 64,-3 71,-20 18,-46 28,-45 -340,-45 -337,0 -349,1 -375,21 -32,25 -35,75 -7,110 l 19,24 363,2 c 212,2 367,7 372,12 5,5 7,17 4,25 -5,14 -30,16 -159,16 -139,1 -150,2 -121,15 38,16 58,45 73,105 24,93 24,97 -3,124 -32,32 -67,33 -95,3 z m 65,-43 c 8,-21 -13,-42 -28,-27 -13,13 -5,43 11,43 6,0 13,-7 17,-16 z m -177,-174 55,-29 -113,-1 c -111,0 -113,0 -102,21 25,46 84,49 160,9 z m 95,-30 c 0,-8 -8,-16 -17,-18 -13,-2 -18,3 -18,18 0,15 5,20 18,18 9,-2 17,-10 17,-18 z"
				id="path1419"/>
		<path
				fill="#ffffff"
				d="m 1253,1708 c 3,-10 53,-13 207,-13 154,0 204,3 208,13 3,9 -43,12 -208,12 -165,0 -211,-3 -207,-12 z"
				id="path1421"/>
		<path
				fill="#ffffff"
				d="m 1404,1501 c -17,-18 36,-21 332,-21 228,0 335,3 332,10 -3,10 -654,21 -664,11 z"
				id="path1423"/>
		<path
				fill="#ffffff"
				d="m 913,1271 c -102,-47 -107,-182 -10,-241 31,-19 55,-20 640,-20 542,0 608,2 614,16 3,8 1,20 -4,25 -5,5 -252,10 -612,12 l -603,2 -24,28 c -29,34 -31,76 -5,108 l 19,24 614,5 613,5 v 25 25 l -600,2 c -572,3 -602,2 -642,-16 z"
				id="path1425"/>
		<path
				fill="#ffffff"
				d="m 2128,1178 c -7,-16 -30,-18 -245,-20 -150,-2 -238,-7 -238,-13 0,-6 87,-11 236,-13 235,-2 237,-3 244,-25 8,-21 8,-21 12,6 2,15 3,39 1,55 -2,21 -5,23 -10,10 z"
				id="path1427"/>
		<path
				fill="#ffffff"
				d="m 1053,1148 c 3,-10 65,-13 267,-13 202,0 264,3 268,13 3,9 -55,12 -268,12 -213,0 -271,-3 -267,-12 z"
				id="path1429"/>
	</g>
</svg>
